# xmcd CD database file
#
# Track frame offsets:
#	150
#	19042
#	36429
#	53369
#	67309
#	86858
#	104017
#	123615
#	139845
#	158455
#	174932
#	192860
#	210338
#	227135
#
# Disc length: 3191 seconds
#
# Revision: 5
# Processed by: cddbd v1.5.1PL0 Copyright (c) Steve Scherf et al.
# Submitted via: CDex 1.50
#
DISCID=bf0c750e
DTITLE=¿Ã∑Á∏∂(Yiruma) - From The Yellow Room
DYEAR=2003
DGENRE=New Age
TTITLE0=The Scenery Begins
TTITLE1=Chaconne
TTITLE2=Yellow Room
TTITLE3=Indigo
TTITLE4=Kiss The Rain
TTITLE5=The Day After...
TTITLE6=Sometimes... Someone
TTITLE7=Falling...
TTITLE8=The Moment
TTITLE9=27. May
TTITLE10=With The Wind
TTITLE11=Indigo 2 (with Guitar)
TTITLE12=Chaconne 2 (with Guitar)
TTITLE13=
EXTD=YEAR: 2003
EXTT0=
EXTT1=
EXTT2=
EXTT3=
EXTT4=
EXTT5=
EXTT6=
EXTT7=
EXTT8=
EXTT9=
EXTT10=
EXTT11=
EXTT12=
EXTT13=
PLAYORDER=
